<?xml version="1.0" encoding="UTF-8" standalone="no"?>
<svg
   xmlns:dc="http://purl.org/dc/elements/1.1/"
   xmlns:cc="http://creativecommons.org/ns#"
   xmlns:rdf="http://www.w3.org/1999/02/22-rdf-syntax-ns#"
   xmlns:svg="http://www.w3.org/2000/svg"
   xmlns="http://www.w3.org/2000/svg"
   xmlns:sodipodi="http://sodipodi.sourceforge.net/DTD/sodipodi-0.dtd"
   xmlns:inkscape="http://www.inkscape.org/namespaces/inkscape"
   sodipodi:docname="icon-dark.svg"
   inkscape:version="1.0 (4035a4fb49, 2020-05-01)"
   id="svg120"
   version="1.1"
   viewBox="0 0 25.973244 60.9034"
   height="60.9034mm"
   width="25.973244mm">
  <defs
     id="defs114" />
  <sodipodi:namedview
     inkscape:document-rotation="0"
     inkscape:window-maximized="0"
     inkscape:window-y="1453"
     inkscape:window-x="3844"
     inkscape:window-height="687"
     inkscape:window-width="1896"
     fit-margin-bottom="0"
     fit-margin-right="0"
     fit-margin-left="0"
     fit-margin-top="0"
     showgrid="false"
     inkscape:current-layer="layer1"
     inkscape:document-units="mm"
     inkscape:cy="133.85903"
     inkscape:cx="113.22755"
     inkscape:zoom="1.4"
     inkscape:pageshadow="2"
     inkscape:pageopacity="0.0"
     borderopacity="1.0"
     bordercolor="#666666"
     pagecolor="#ffffff"
     id="base" />
  <metadata
     id="metadata117">
    <rdf:RDF>
      <cc:Work
         rdf:about="">
        <dc:format>image/svg+xml</dc:format>
        <dc:type
           rdf:resource="http://purl.org/dc/dcmitype/StillImage" />
        <dc:title></dc:title>
      </cc:Work>
    </rdf:RDF>
  </metadata>
  <g
     transform="translate(236.07126,64.236034)"
     id="layer1"
     inkscape:groupmode="layer"
     inkscape:label="Ebene 1">
    <path
       inkscape:connector-curvature="0"
       id="path11381"
       style="fill:#ff3300;fill-rule:evenodd;stroke:none;stroke-width:0.110506px;stroke-opacity:1"
       d="m -235.2018,-48.05765 5.77106,2.020048 9.23387,0.866366 h 3.17484 l 5.33854,-1.010024 -2.30847,8.512267 -3.60691,2.885309 -3.75168,1.298443 -6.49332,-0.720498 -4.7606,-4.761698 -3.03018,-7.647006 z" />
    <path
       inkscape:connector-curvature="0"
       id="path14428"
       sodipodi:nodetypes="ccszzccc"
       style="fill:#ffffff;fill-opacity:0.2625;fill-rule:evenodd;stroke:none;stroke-width:0.110506;stroke-opacity:1"
       d="m -235.63465,-47.479704 3.60703,9.665949 c 0,0 0.42765,-0.376825 -0.28843,-3.173729 -1.36585,-5.333013 -0.86526,-4.075457 3.89534,-3.318491 4.78601,0.761385 3.75167,0.786801 8.22384,0.57684 4.61804,-0.216591 6.78175,-1.442101 6.78175,-1.442101 l -14.42875,-0.577946 z" />
    <path
       inkscape:connector-curvature="0"
       id="path1387"
       style="fill:#78716c;stroke:none;stroke-width:0.110506;stroke-opacity:1"
       d="m -232.76691,-62.09963 c 0.0254,1.458677 -0.19228,2.878677 -0.51054,4.289837 -0.73597,2.985869 -1.36939,5.993839 -1.34596,9.106789 0.0521,2.82895 0.91941,5.547395 1.95706,8.098975 1.12164,2.91183 3.26213,4.783799 5.8546,5.918695 2.13277,0.57463 4.75728,1.060856 6.90993,0.270739 0.074,-0.03757 0.14919,-0.07514 0.22323,-0.111611 l -1.31834,1.156997 c -0.0751,0.02984 -0.15139,0.05967 -0.22654,0.09061 -2.24658,0.517168 -4.73517,0.300576 -6.92208,-0.411081 -2.59579,-1.171363 -4.79927,-3.105215 -5.90765,-6.043566 -1.00858,-2.578102 -1.97673,-5.298757 -2.01806,-8.146493 0.01,-3.124001 0.62934,-6.148547 1.34353,-9.155411 0.305,-1.375799 0.53751,-2.764857 0.41562,-4.187068 z" />
    <path
       inkscape:connector-curvature="0"
       id="path1389"
       sodipodi:nodetypes="ccccccccccccccc"
       style="fill:#78716c;stroke:none;stroke-width:0.110506;stroke-opacity:1"
       d="m -212.78966,-62.152673 c -0.69508,1.458677 -0.62878,3.0146 -0.31052,4.42576 0.73707,2.985868 1.36917,5.994943 1.34596,9.106789 -0.0519,2.830055 -0.91941,5.547394 -1.95706,8.098975 -1.12163,2.911829 -3.26213,4.783799 -5.8546,5.918694 -2.13276,0.574631 -4.75728,1.060857 -6.90993,0.271845 -0.074,-0.03757 -0.14918,-0.07514 -0.22322,-0.112716 l 1.31833,1.156996 c 0.0762,0.02984 0.1514,0.06078 0.22654,0.09061 2.24658,0.517167 4.73518,0.300576 6.92209,-0.411082 2.59689,-1.170257 4.79927,-3.105215 5.90764,-6.043566 1.00892,-2.578102 1.97695,-5.298756 2.01784,-8.146493 -0.01,-3.124001 -0.62878,-6.148546 -1.34375,-9.155411 -0.305,-1.375798 -0.96361,-4.155021 0.71055,-5.373901 z" />
    <path
       inkscape:connector-curvature="0"
       id="path1399"
       sodipodi:nodetypes="ccccccccccccc"
       style="fill:#78716c;stroke:none;stroke-width:0.110506;stroke-opacity:1;fill-opacity:1"
       d="m -213.19521,-61.14044 c -1.3979,0.180125 -3.13837,0.760281 -4.49428,1.187939 -2.88199,0.825478 -5.7231,1.900701 -8.71781,2.005681 -2.08635,-0.07183 -4.24342,-0.200016 -6.24579,-0.919409 -0.69287,-0.267424 -0.59673,-0.869681 -1.15036,-1.393479 -0.0928,-0.343673 -0.27737,-0.786802 -0.3702,-0.891782 l 0.84869,-0.309417 c 0.0895,0.09835 0.14807,0.36688 0.23869,0.46523 0.53927,0.508327 1.15147,0.818849 1.82445,1.081853 1.9659,0.741494 4.10308,0.865261 6.16181,0.900622 2.96156,-0.127081 5.7883,-1.166942 8.63935,-1.99463 1.40895,-0.459705 2.83779,-1.073012 4.30089,-1.233246 z" />
    <path
       inkscape:connector-curvature="0"
       id="path1401"
       sodipodi:nodetypes="czzcccczzcc"
       style="fill:#78716c;stroke:none;stroke-width:0.110506;stroke-opacity:1"
       d="m -234.24658,-61.311724 c 1.2675,-1.244296 7.01491,-2.289681 9.65932,-2.697448 2.6444,-0.406662 6.87236,-0.267424 9.20955,0.424343 2.27974,0.674085 1.82556,0.602257 3.69864,0.986817 0.27847,0.0652 0.5459,0.174599 0.81553,0.27295 l -1.4189,1.065276 c -0.25858,-0.09504 -0.51606,-0.19891 -0.78348,-0.264109 -1.83882,-0.395611 -0.9393,-0.772436 -3.63454,-1.353697 -2.69634,-0.580156 -6.9674,-0.611097 -9.58528,-0.04641 -2.62451,0.56579 -6.31099,1.510615 -7.75199,2.138288 z" />
    <path
       inkscape:connector-curvature="0"
       id="path1423"
       style="fill:#78716c;stroke:none;stroke-width:0.110506;stroke-opacity:1"
       d="m -222.89431,-15.270558 c -1.52499,0.221012 -3.15384,0.587891 -4.76281,0.974662 -3.28092,1.000078 -3.89091,0.681821 -5.11089,3.85997 -0.26964,4.2732619 4.83242,5.5551299 8.66918,6.1341807 2.21233,0.169074 4.73849,-0.060778 7.49672,-0.903938 0.53374,-0.1635487 2.18912,-0.8508952 1.63549,-0.6055722 -2.36151,1.0431754 0.28731,-0.4475488 1.24871,-1.4089498 2.66761,-3.0599077 1.60455,-5.1617297 0.17239,-6.3419317 -1.6819,-0.979082 -3.55608,-1.774724 -5.61149,-2.344935 l 2.04215,-1.050911 c 1.93164,0.701713 3.86218,1.416686 5.49767,2.43555 1.47083,1.240981 2.57479,3.363798 -0.14366,6.5441574 -4.42686,4.5351609 -10.66271,4.7804839 -14.12154,4.6080948 -3.87986,-0.6519846 -8.99518,-1.9316426 -8.88291,-6.1916439 1.29447,-3.6268023 6.02191,-4.9827093 9.04756,-5.8004533 1.66974,-0.398926 3.37927,-0.834319 4.95729,-1.043175 z" />
    <path
       inkscape:connector-curvature="0"
       id="path1425"
       sodipodi:nodetypes="ccccccccccc"
       style="fill:#78716c;stroke:none;stroke-width:0.110506;stroke-opacity:1"
       d="m -226.21281,-34.337241 c 0.71056,1.287394 0.96141,2.656561 1.27745,4.131815 0.72492,4.168281 1.58024,8.331037 2.12613,12.536891 0.14477,1.658693 0.3271,3.382584 0.0508,5.034647 -0.15913,0.580156 -0.21438,1.180203 -0.24091,1.78246 l -2.1858,1.3271753 c -0.75697,0.1657588 0.75033,-1.7051053 0.90836,-2.2974173 0.31383,-1.642117 0.14476,-3.354958 0.0497,-5.015861 -0.45528,-4.216904 -1.28407,-8.394026 -2.07751,-12.542416 -0.3072,-1.296234 -0.70392,-3.175939 -1.3117,-4.160546 z" />
    <path
       inkscape:connector-curvature="0"
       id="path1427"
       sodipodi:nodetypes="ccccccccccccc"
       style="fill:#78716c;stroke:none;stroke-width:0.110506;stroke-opacity:1"
       d="m -220.40241,-33.893007 c -0.74702,1.97253 -1.2244,4.147285 -1.65538,6.252422 -0.55805,3.316281 -0.66745,6.744173 -0.40113,10.105762 0.27405,1.60344 0.0442,3.20246 0.0199,4.813635 0.007,0.615518 -0.11603,1.198989 -0.0619,1.805666 0.1547,0.180125 0.74481,0.297261 1.16031,0.553635 l -1.43105,0.9481402 c -0.35031,0.1757043 -2.34052,0.1591284 -2.47312,-0.1513931 -0.10941,-0.6519851 1.27413,-1.6498531 1.31502,-2.3128881 0.0298,-1.613385 0.24532,-3.215721 0.0376,-4.824686 -0.25638,-3.398056 -0.10388,-6.851364 0.46302,-10.201902 0.39671,-1.994631 0.80337,-4.316359 1.48078,-6.110975 z" />
    <path
       inkscape:connector-curvature="0"
       id="path12910"
       style="fill:#ff3300;fill-opacity:0.70833;fill-rule:evenodd;stroke:none;stroke-width:0.110506px;stroke-opacity:1"
       d="m -234.33609,-48.489728 7.35858,-1.154786 7.50225,0.144763 5.91648,1.010023 2.16371,1.153682 -1.58687,1.298444 -6.06014,1.154786 -9.52229,-1.010024 -6.20457,-1.443206 z" />
    <path
       inkscape:connector-curvature="0"
       id="path1433"
       sodipodi:nodetypes="ccczccccccc"
       style="fill:#78716c;stroke:none;stroke-width:0.110506;stroke-opacity:1"
       d="m -234.83945,-48.3527 c 0.72658,0.451969 1.56642,0.674086 2.36538,0.931564 3.51409,1.269713 7.10332,1.781355 10.77874,1.802351 2.32394,0.0044 5.71316,0.442023 6.97071,-0.04531 l 3.70969,-1.437682 -0.26301,1.132685 c -1.42663,0.478491 -0.10056,0.507222 -3.83345,1.169152 -2.38582,0.27958 -5.86565,0.209962 -8.19069,0.03978 -3.692,-0.413292 -6.93314,-0.487331 -10.48259,-1.655378 -0.8226,-0.216592 -1.29303,-0.408872 -2.06226,-0.732654 z" />
    <path
       inkscape:connector-curvature="0"
       id="path1439"
       style="fill:#78716c;fill-opacity:0.44583;stroke:none;stroke-width:0.110506;stroke-opacity:1"
       d="m -224.86574,-35.91858 c 1.66864,0.05194 3.41795,0.04973 5.16947,0.04531 4.68323,-0.795643 0.34477,1.137105 -1.02329,0.711657 -0.68956,-0.450864 -2.59468,-0.306101 -2.48638,-1.176887 0.87078,-0.379035 12.77337,-3.829028 5.03907,-1.197884 -0.33926,-0.144762 -1.19236,-0.146973 -0.17239,-0.875206 0.37793,-0.295051 0.43429,-0.511642 0.84647,-0.857526 l 2.85547,-0.901728 c -0.43428,0.372405 -0.40445,0.55916 -0.93377,0.947036 -0.17349,0.259688 0.0718,0.568 0.27958,0.780171 -1.42553,0.514957 -11.82523,3.623488 -5.00039,1.147051 0,0.794537 1.82887,0.65751 2.54716,1.064172 1.85871,0.521587 -4.85121,2.038833 -4.79264,1.401214 -1.77804,-0.0033 -3.5605,-0.0044 -5.41921,0.04641 z" />
    <path
       inkscape:connector-curvature="0"
       id="path1341"
       sodipodi:nodetypes="ccczccccccc"
       style="fill:#78716c;stroke:none;stroke-width:0.110506;stroke-opacity:1"
       d="m -234.55799,-47.763704 c 0.76559,-0.366879 1.62311,-0.491751 2.44307,-0.65751 3.61796,-0.860841 7.23592,-0.961401 10.89366,-0.562475 2.31068,0.260794 5.7231,0.211066 6.92762,0.839845 l 3.54834,1.852078 -0.15139,-1.156996 c -1.37249,-0.637619 -0.0497,-0.514958 -3.69863,-1.59902 -2.34494,-0.549214 -5.81261,-0.877417 -8.14097,-0.973557 -3.71189,-0.0099 -6.94198,-0.304996 -10.58536,0.450864 -0.83874,0.121557 -1.3253,0.259689 -2.12149,0.493961 z" />
    <path
       inkscape:connector-curvature="0"
       id="path2104"
       style="fill:#000000;fill-opacity:0.34167;stroke:none;stroke-width:0.110506;stroke-opacity:1"
       d="m -214.09473,-13.956643 c -1.79683,0.390086 -3.5826,0.916094 -5.35291,1.444312 -1.71836,0.561369 -3.43341,1.141525 -5.19598,1.521665 l 1.90733,1.4277362 c 1.69626,-0.5237982 3.39032,-1.0597512 5.07995,-1.6155962 1.80125,-0.521587 3.6467,-1.099533 5.50762,-1.244296 z" />
  </g>
</svg>
