<?xml version="1.0" encoding="UTF-8" standalone="no"?>
<!-- Created with Inkscape (http://www.inkscape.org/) -->

<svg
   xmlns:dc="http://purl.org/dc/elements/1.1/"
   xmlns:cc="http://creativecommons.org/ns#"
   xmlns:rdf="http://www.w3.org/1999/02/22-rdf-syntax-ns#"
   xmlns:svg="http://www.w3.org/2000/svg"
   xmlns="http://www.w3.org/2000/svg"
   xmlns:sodipodi="http://sodipodi.sourceforge.net/DTD/sodipodi-0.dtd"
   xmlns:inkscape="http://www.inkscape.org/namespaces/inkscape"
   width="4.671514in"
   height="2.3977718in"
   viewBox="0 0 118.65646 60.903405"
   version="1.1"
   id="svg4100"
   inkscape:version="0.92.1 r15371"
   sodipodi:docname="logo.svg"
   inkscape:export-filename="/home/eike/workspace/projects/sharry/modules/webapp/src/main/html/logo.png"
   inkscape:export-xdpi="96"
   inkscape:export-ydpi="96">
  <defs
     id="defs4094" />
  <sodipodi:namedview
     id="base"
     pagecolor="#ffffff"
     bordercolor="#666666"
     borderopacity="1.0"
     inkscape:pageopacity="0.0"
     inkscape:pageshadow="2"
     inkscape:zoom="0.35"
     inkscape:cx="-288.63292"
     inkscape:cy="-998.38533"
     inkscape:document-units="mm"
     inkscape:current-layer="layer1"
     showgrid="false"
     units="in"
     fit-margin-top="0"
     fit-margin-left="0"
     fit-margin-right="0"
     fit-margin-bottom="0"
     inkscape:window-width="1598"
     inkscape:window-height="2141"
     inkscape:window-x="1"
     inkscape:window-y="18"
     inkscape:window-maximized="0" />
  <metadata
     id="metadata4097">
    <rdf:RDF>
      <cc:Work
         rdf:about="">
        <dc:format>image/svg+xml</dc:format>
        <dc:type
           rdf:resource="http://purl.org/dc/dcmitype/StillImage" />
        <dc:title></dc:title>
        <cc:license
           rdf:resource="http://creativecommons.org/licenses/by-sa/4.0/" />
      </cc:Work>
      <cc:License
         rdf:about="http://creativecommons.org/licenses/by-sa/4.0/">
        <cc:permits
           rdf:resource="http://creativecommons.org/ns#Reproduction" />
        <cc:permits
           rdf:resource="http://creativecommons.org/ns#Distribution" />
        <cc:requires
           rdf:resource="http://creativecommons.org/ns#Notice" />
        <cc:requires
           rdf:resource="http://creativecommons.org/ns#Attribution" />
        <cc:permits
           rdf:resource="http://creativecommons.org/ns#DerivativeWorks" />
        <cc:requires
           rdf:resource="http://creativecommons.org/ns#ShareAlike" />
      </cc:License>
    </rdf:RDF>
  </metadata>
  <g
     inkscape:label="Ebene 1"
     inkscape:groupmode="layer"
     id="layer1"
     transform="translate(-185.98056,164.8869)">
    <flowRoot
       xml:space="preserve"
       id="flowRoot3982"
       style="font-style:normal;font-variant:normal;font-weight:normal;font-stretch:normal;font-size:40px;line-height:1.25;font-family:'Liberation Serif';-inkscape-font-specification:'Liberation Serif';letter-spacing:0px;word-spacing:0px;fill:#000000;fill-opacity:1;stroke:none"
       transform="matrix(0.73660175,0,0,0.67216044,-23.953198,-578.33299)"
       inkscape:export-xdpi="96"
       inkscape:export-ydpi="96"><flowRegion
         id="flowRegion3984"><rect
           id="rect3986"
           width="385.87827"
           height="170.71577"
           x="340.42142"
           y="659.86981" /></flowRegion><flowPara
         id="flowPara3988"
         style="font-style:italic;font-variant:normal;font-weight:normal;font-stretch:normal;font-family:FreeSerif;-inkscape-font-specification:'FreeSerif Italic'">Sharry</flowPara></flowRoot>    <g
       inkscape:label="Warstwa 1"
       id="layer1-5"
       transform="matrix(0.26458333,0,0,0.26458333,180.72686,-260.719)"
       inkscape:export-xdpi="96"
       inkscape:export-ydpi="96">
      <g
         transform="matrix(0.41766,0,0,0.41766,-15.029815,222.66943)"
         id="g15958">
        <path
           d="m 91.396,480.48 52.224,18.28 83.56,7.84 h 28.73 l 48.31,-9.14 -20.89,77.03 -32.64,26.11 -33.95,11.75 -58.76,-6.52 -43.08,-43.09 -27.421,-69.2 z"
           style="fill:#ff3300;fill-rule:evenodd;stroke:#000000;stroke-width:1px"
           id="path11381"
           inkscape:connector-curvature="0" />
        <path
           d="m 87.479,485.71 32.641,87.47 c 0,0 3.87,-3.41 -2.61,-28.72 -12.36,-48.26 -7.83,-36.88 35.25,-30.03 43.31,6.89 33.95,7.12 74.42,5.22 41.79,-1.96 61.37,-13.05 61.37,-13.05 l -130.57,-5.23 z"
           style="fill:#ffffff;fill-opacity:0.2625;fill-rule:evenodd"
           sodipodi:nodetypes="ccszzccc"
           id="path14428"
           inkscape:connector-curvature="0" />
        <path
           d="m 113.43,353.41 c 0.23,13.2 -1.74,26.05 -4.62,38.82 -6.66,27.02 -12.392,54.24 -12.18,82.41 0.471,25.6 8.32,50.2 17.71,73.29 10.15,26.35 29.52,43.29 52.98,53.56 19.3,5.2 43.05,9.6 62.53,2.45 0.67,-0.34 1.35,-0.68 2.02,-1.01 l -11.93,10.47 c -0.68,0.27 -1.37,0.54 -2.05,0.82 -20.33,4.68 -42.85,2.72 -62.64,-3.72 -23.49,-10.6 -43.43,-28.1 -53.46,-54.69 -9.127,-23.33 -17.888,-47.95 -18.262,-73.72 0.09,-28.27 5.695,-55.64 12.158,-82.85 2.76,-12.45 4.864,-25.02 3.761,-37.89 z"
           style="fill:#000000"
           id="path1387"
           inkscape:connector-curvature="0" />
        <path
           d="m 294.21,352.93 c -6.29,13.2 -5.69,27.28 -2.81,40.05 6.67,27.02 12.39,54.25 12.18,82.41 -0.47,25.61 -8.32,50.2 -17.71,73.29 -10.15,26.35 -29.52,43.29 -52.98,53.56 -19.3,5.2 -43.05,9.6 -62.53,2.46 -0.67,-0.34 -1.35,-0.68 -2.02,-1.02 l 11.93,10.47 c 0.69,0.27 1.37,0.55 2.05,0.82 20.33,4.68 42.85,2.72 62.64,-3.72 23.5,-10.59 43.43,-28.1 53.46,-54.69 9.13,-23.33 17.89,-47.95 18.26,-73.72 -0.09,-28.27 -5.69,-55.64 -12.16,-82.85 -2.76,-12.45 -8.72,-37.6 6.43,-48.63 z"
           style="fill:#000000"
           sodipodi:nodetypes="ccccccccccccccc"
           id="path1389"
           inkscape:connector-curvature="0" />
        <path
           d="m 290.54,362.09 c -12.65,1.63 -28.4,6.88 -40.67,10.75 -26.08,7.47 -51.79,17.2 -78.89,18.15 -18.88,-0.65 -38.4,-1.81 -56.52,-8.32 -6.27,-2.42 -5.4,-7.87 -10.41,-12.61 -0.84,-3.11 -2.51,-7.12 -3.35,-8.07 l 7.68,-2.8 c 0.81,0.89 1.34,3.32 2.16,4.21 4.88,4.6 10.42,7.41 16.51,9.79 17.79,6.71 37.13,7.83 55.76,8.15 26.8,-1.15 52.38,-10.56 78.18,-18.05 12.75,-4.16 25.68,-9.71 38.92,-11.16 z"
           style="fill:#000000"
           sodipodi:nodetypes="ccccccccccccc"
           id="path1399"
           inkscape:connector-curvature="0" />
        <path
           d="m 100.04,360.54 c 11.47,-11.26 63.48,-20.72 87.41,-24.41 23.93,-3.68 62.19,-2.42 83.34,3.84 20.63,6.1 16.52,5.45 33.47,8.93 2.52,0.59 4.94,1.58 7.38,2.47 l -12.84,9.64 c -2.34,-0.86 -4.67,-1.8 -7.09,-2.39 -16.64,-3.58 -8.5,-6.99 -32.89,-12.25 -24.4,-5.25 -63.05,-5.53 -86.74,-0.42 -23.75,5.12 -57.11,13.67 -70.15,19.35 z"
           style="fill:#000000"
           sodipodi:nodetypes="czzcccczzcc"
           id="path1401"
           inkscape:connector-curvature="0" />
        <path
           d="m 202.77,777.18 c -13.8,2 -28.54,5.32 -43.1,8.82 -29.69,9.05 -35.21,6.17 -46.25,34.93 -2.44,38.67 43.73,50.27 78.45,55.51 20.02,1.53 42.88,-0.55 67.84,-8.18 4.83,-1.48 19.81,-7.7 14.8,-5.48 -21.37,9.44 2.6,-4.05 11.3,-12.75 24.14,-27.69 14.52,-46.71 1.56,-57.39 -15.22,-8.86 -32.18,-16.06 -50.78,-21.22 l 18.48,-9.51 c 17.48,6.35 34.95,12.82 49.75,22.04 13.31,11.23 23.3,30.44 -1.3,59.22 -40.06,41.04 -96.49,43.26 -127.79,41.7 -35.11,-5.9 -81.4,-17.48 -80.384,-56.03 11.714,-32.82 54.494,-45.09 81.874,-52.49 15.11,-3.61 30.58,-7.55 44.86,-9.44 z"
           style="fill:#000000"
           id="path1423"
           inkscape:connector-curvature="0" />
        <path
           d="m 172.74,604.64 c 6.43,11.65 8.7,24.04 11.56,37.39 6.56,37.72 14.3,75.39 19.24,113.45 1.31,15.01 2.96,30.61 0.46,45.56 -1.44,5.25 -1.94,10.68 -2.18,16.13 l -19.78,12.01 c -6.85,1.5 6.79,-15.43 8.22,-20.79 2.84,-14.86 1.31,-30.36 0.45,-45.39 -4.12,-38.16 -11.62,-75.96 -18.8,-113.5 -2.78,-11.73 -6.37,-28.74 -11.87,-37.65 z"
           style="fill:#000000"
           sodipodi:nodetypes="ccccccccccc"
           id="path1425"
           inkscape:connector-curvature="0" />
        <path
           d="m 225.32,608.66 c -6.76,17.85 -11.08,37.53 -14.98,56.58 -5.05,30.01 -6.04,61.03 -3.63,91.45 2.48,14.51 0.4,28.98 0.18,43.56 0.06,5.57 -1.05,10.85 -0.56,16.34 1.4,1.63 6.74,2.69 10.5,5.01 l -12.95,8.58 c -3.17,1.59 -21.18,1.44 -22.38,-1.37 -0.99,-5.9 11.53,-14.93 11.9,-20.93 0.27,-14.6 2.22,-29.1 0.34,-43.66 -2.32,-30.75 -0.94,-62 4.19,-92.32 3.59,-18.05 7.27,-39.06 13.4,-55.3 z"
           style="fill:#000000"
           sodipodi:nodetypes="ccccccccccccc"
           id="path1427"
           inkscape:connector-curvature="0" />
        <path
           d="m 99.23,476.57 66.59,-10.45 67.89,1.31 53.54,9.14 19.58,10.44 -14.36,11.75 -54.84,10.45 -86.17,-9.14 -56.147,-13.06 z"
           style="fill:#ff3300;fill-opacity:0.70832998;fill-rule:evenodd;stroke:#000000;stroke-width:1px"
           id="path12910"
           inkscape:connector-curvature="0" />
        <path
           d="m 94.675,477.81 c 6.575,4.09 14.175,6.1 21.405,8.43 31.8,11.49 64.28,16.12 97.54,16.31 21.03,0.04 51.7,4 63.08,-0.41 l 33.57,-13.01 -2.38,10.25 c -12.91,4.33 -0.91,4.59 -34.69,10.58 -21.59,2.53 -53.08,1.9 -74.12,0.36 -33.41,-3.74 -62.74,-4.41 -94.86,-14.98 -7.444,-1.96 -11.701,-3.7 -18.662,-6.63 z"
           style="fill:#000000"
           sodipodi:nodetypes="ccczccccccc"
           id="path1433"
           inkscape:connector-curvature="0" />
        <path
           d="m 184.93,590.33 c 15.1,0.47 30.93,0.45 46.78,0.41 42.38,-7.2 3.12,10.29 -9.26,6.44 -6.24,-4.08 -23.48,-2.77 -22.5,-10.65 7.88,-3.43 115.59,-34.65 45.6,-10.84 -3.07,-1.31 -10.79,-1.33 -1.56,-7.92 3.42,-2.67 3.93,-4.63 7.66,-7.76 l 25.84,-8.16 c -3.93,3.37 -3.66,5.06 -8.45,8.57 -1.57,2.35 0.65,5.14 2.53,7.06 -12.9,4.66 -107.01,32.79 -45.25,10.38 0,7.19 16.55,5.95 23.05,9.63 16.82,4.72 -43.9,18.45 -43.37,12.68 -16.09,-0.03 -32.22,-0.04 -49.04,0.42 z"
           style="fill:#000000;fill-opacity:0.44582998"
           id="path1439"
           inkscape:connector-curvature="0" />
        <path
           d="m 97.222,483.14 c 6.928,-3.32 14.688,-4.45 22.108,-5.95 32.74,-7.79 65.48,-8.7 98.58,-5.09 20.91,2.36 51.79,1.91 62.69,7.6 l 32.11,16.76 -1.37,-10.47 c -12.42,-5.77 -0.45,-4.66 -33.47,-14.47 -21.22,-4.97 -52.6,-7.94 -73.67,-8.81 -33.59,-0.09 -62.82,-2.76 -95.79,4.08 -7.59,1.1 -11.993,2.35 -19.198,4.47 z"
           style="fill:#000000"
           sodipodi:nodetypes="ccczccccccc"
           id="path1341"
           inkscape:connector-curvature="0" />
        <path
           d="m 282.4,789.07 c -16.26,3.53 -32.42,8.29 -48.44,13.07 -15.55,5.08 -31.07,10.33 -47.02,13.77 l 17.26,12.92 c 15.35,-4.74 30.68,-9.59 45.97,-14.62 16.3,-4.72 33,-9.95 49.84,-11.26 z"
           style="fill:#000000;fill-opacity:0.34167002"
           id="path2104"
           inkscape:connector-curvature="0" />
      </g>
    </g>
  </g>
</svg>
